<svg id="visual" viewBox="0 0 960 540" width="960" height="540" xmlns="http://www.w3.org/2000/svg" xmlns:xlink="http://www.w3.org/1999/xlink" version="1.1"><g><g transform="translate(530 229)"><path d="M0 -87L75.3 -43.5L75.3 43.5L0 87L-75.3 43.5L-75.3 -43.5Z" stroke="#aa5100" fill="none" stroke-width="1"></path></g><g transform="translate(626 499)"><path d="M0 -45L39 -22.5L39 22.5L0 45L-39 22.5L-39 -22.5Z" stroke="#aa5100" fill="none" stroke-width="1"></path></g><g transform="translate(159 131)"><path d="M0 -77L66.7 -38.5L66.7 38.5L0 77L-66.7 38.5L-66.7 -38.5Z" stroke="#aa5100" fill="none" stroke-width="1"></path></g><g transform="translate(791 231)"><path d="M0 -43L37.2 -21.5L37.2 21.5L0 43L-37.2 21.5L-37.2 -21.5Z" stroke="#aa5100" fill="none" stroke-width="1"></path></g><g transform="translate(250 460)"><path d="M0 -48L41.6 -24L41.6 24L0 48L-41.6 24L-41.6 -24Z" stroke="#aa5100" fill="none" stroke-width="1"></path></g><g transform="translate(875 512)"><path d="M0 -59L51.1 -29.5L51.1 29.5L0 59L-51.1 29.5L-51.1 -29.5Z" stroke="#aa5100" fill="none" stroke-width="1"></path></g><g transform="translate(687 77)"><path d="M0 -67L58 -33.5L58 33.5L0 67L-58 33.5L-58 -33.5Z" stroke="#aa5100" fill="none" stroke-width="1"></path></g><g transform="translate(347 100)"><path d="M0 -45L39 -22.5L39 22.5L0 45L-39 22.5L-39 -22.5Z" stroke="#aa5100" fill="none" stroke-width="1"></path></g><g transform="translate(125 334)"><path d="M0 -61L52.8 -30.5L52.8 30.5L0 61L-52.8 30.5L-52.8 -30.5Z" stroke="#aa5100" fill="none" stroke-width="1"></path></g><g transform="translate(920 31)"><path d="M0 -45L39 -22.5L39 22.5L0 45L-39 22.5L-39 -22.5Z" stroke="#aa5100" fill="none" stroke-width="1"></path></g></g></svg>